<svg height="480pt" viewBox="0 -24 480 480" width="480pt" xmlns="http://www.w3.org/2000/svg"><path d="m392 344v-24h-24v-80h24v-24c0-17.671875-14.328125-32-32-32h-84l-12 24h-48l-12-24h-84c-17.671875 0-32 14.328125-32 32v24h24v80h-24v24c0 17.671875 14.328125 32 32 32h72c0-26.507812 21.492188-48 48-48s48 21.492188 48 48h72c17.671875 0 32-14.328125 32-32zm-104-96" fill="#e3e3e5"/><g fill="#00aeef"><path d="m368 240h24v80h-24zm0 0"/><path d="m88 240h24v80h-24zm0 0"/><path d="m264 208 12-24h-72l12 24zm0 0"/></g><path d="m264 88c0 13.253906-10.746094 24-24 24s-24-10.746094-24-24 10.746094-24 24-24 24 10.746094 24 24zm0 0" fill="#d80027"/><path d="m240 328c-26.507812 0-48 21.492188-48 48s21.492188 48 48 48 48-21.492188 48-48-21.492188-48-48-48zm0 64c-8.835938 0-16-7.164062-16-16s7.164062-16 16-16 16 7.164062 16 16-7.164062 16-16 16zm0 0" fill="#ffeb99"/><path d="m432 240c-8.835938 0-16 7.164062-16 16v48c0 8.835938 7.164062 16 16 16h16v-80zm0 0" fill="#ffeb99"/><path d="m448 240v88h24v-96h-24zm0 0" fill="#00aeef"/><path d="m48 320c8.835938 0 16-7.164062 16-16v-48c0-8.835938-7.164062-16-16-16h-16v80zm0 0" fill="#ffeb99"/><path d="m32 328v-96h-24v96zm0 0" fill="#00aeef"/><path d="m256 376c0 8.835938-7.164062 16-16 16s-16-7.164062-16-16 7.164062-16 16-16 16 7.164062 16 16zm0 0" fill="#d80027"/><path d="m192 240h-48c-4.417969 0-8 3.582031-8 8s3.582031 8 8 8h48c4.417969 0 8-3.582031 8-8s-3.582031-8-8-8zm0 0"/><path d="m336 240h-48c-4.417969 0-8 3.582031-8 8s3.582031 8 8 8h48c4.417969 0 8-3.582031 8-8s-3.582031-8-8-8zm0 0"/><path d="m240 352c-13.253906 0-24 10.746094-24 24s10.746094 24 24 24 24-10.746094 24-24-10.746094-24-24-24zm0 32c-4.417969 0-8-3.582031-8-8s3.582031-8 8-8 8 3.582031 8 8-3.582031 8-8 8zm0 0"/><path d="m248 0h-16c-128.070312.144531-231.855469 103.929688-232 232v96c0 4.417969 3.582031 8 8 8h24c4.417969 0 8-3.582031 8-8h8c13.253906 0 24-10.746094 24-24v-48c0-13.253906-10.746094-24-24-24h-8c0-4.417969-3.582031-8-8-8h-15.800781c4.421875-116.027344 99.6875-207.851562 215.800781-208h16c116.113281.148438 211.378906 91.972656 215.800781 208h-15.800781c-4.417969 0-8 3.582031-8 8h-8c-13.253906 0-24 10.746094-24 24v48c0 13.253906 10.746094 24 24 24h8c0 4.417969 3.582031 8 8 8h16v8c0 13.253906-10.746094 24-24 24h-48.207031c5.292969-6.882812 8.175781-15.316406 8.207031-24v-128c-.027344-22.082031-17.917969-39.972656-40-40h-97.222656l-9.824219-58.800781c13.828125-6.121094 21.484375-21.085938 18.355469-35.878907-3.128906-14.796874-16.1875-25.382812-31.308594-25.382812s-28.179688 10.585938-31.308594 25.382812c-3.128906 14.792969 4.527344 29.757813 18.355469 35.878907l-9.824219 58.800781h-97.222656c-22.082031.027344-39.972656 17.917969-40 40v128c.027344 22.082031 17.917969 39.972656 40 40h64.640625c3.953125 27.535156 27.542969 47.976562 55.359375 47.976562s51.40625-20.441406 55.359375-47.976562h144.640625c22.082031-.027344 39.972656-17.917969 40-40v-112c-.144531-128.070312-103.929688-231.855469-232-232zm-200 248c4.417969 0 8 3.582031 8 8v48c0 4.417969-3.582031 8-8 8h-8v-64zm-24 72h-8v-80h8zm360-8h-8v-64h8zm-120.945312-120-4 8h-38.109376l-4-8zm-23.054688-120c8.835938 0 16 7.164062 16 16s-7.164062 16-16 16-16-7.164062-16-16 7.164062-16 16-16zm0 64.800781 6.550781 39.199219h-13.101562zm-144 111.199219h8v64h-8zm144 168c-22.089844 0-40-17.910156-40-40s17.910156-40 40-40 40 17.910156 40 40c-.027344 22.082031-17.917969 39.972656-40 40zm55.359375-48c-3.953125-27.535156-27.542969-47.976562-55.359375-47.976562s-51.40625 20.441406-55.359375 47.976562h-64.640625c-13.253906 0-24-10.746094-24-24v-16h16c4.417969 0 8-3.582031 8-8v-80c0-4.417969-3.582031-8-8-8h-16v-16c0-13.253906 10.746094-24 24-24h79.054688l9.785156 19.574219c1.355468 2.714843 4.128906 4.425781 7.160156 4.425781h48c3.046875.015625 5.839844-1.699219 7.199219-4.425781l9.746093-19.574219h79.054688c13.253906 0 24 10.746094 24 24v16h-16c-4.417969 0-8 3.582031-8 8v80c0 4.417969 3.582031 8 8 8h16v16c0 13.253906-10.746094 24-24 24zm136.640625-56c-4.417969 0-8-3.582031-8-8v-48c0-4.417969 3.582031-8 8-8h8v64zm24-72h8v80h-8zm0 0"/></svg>