<svg height="490pt" viewBox="0 -8 490.17184 490" width="490pt" xmlns="http://www.w3.org/2000/svg"><path d="m249.828125 262.085938h-10c-1.367187 0-2.828125.71875-2.828125 2.085937v18.914063h10v-18.914063c0-1.367187 1.460938-2.085937 2.828125-2.085937zm0 0" fill="#d4e1f4"/><path d="m161 438.085938v-118.53125c0-13.234376 10.824219-24.46875 24.054688-24.46875h-10c-13.230469 0-24.054688 11.234374-24.054688 24.46875v118.53125c.042969 13.257812 10.796875 23.988281 24.054688 24h10c-13.257813-.011719-24.011719-10.742188-24.054688-24zm0 0" fill="#d4e1f4"/><path d="m490.023438 254.867188c0-17.3125-13.453126-31.644532-30.730469-32.742188-17.277344-1.097656-32.433594 11.414062-34.625 28.589844-2.191407 17.171875 9.335937 33.09375 26.332031 36.371094v35.921874c-4.46875-1.839843-9.1875-3.003906-14-3.445312v-.007812c0-19.851563-16.441406-36.46875-36.289062-36.46875h-50.710938v-18.914063c.074219-3.753906-1.382812-7.378906-4.035156-10.035156s-6.273438-4.121094-10.027344-4.050781h-41.9375v-19.269532c0-3.316406-2.683594-6-6-6-3.3125 0-6 2.683594-6 6v19.269532h-42.171875c-7.984375 0-14.828125 6.101562-14.828125 14.085937v18.914063h-49.945312c-19.851563 0-36.054688 16.617187-36.054688 36.46875v118.53125c.050781 19.882812 16.171875 35.980468 36.054688 36h225.65625c19.847656 0 36.289062-16.148438 36.289062-36v-.007813c30.3125-3.167969 53.296875-28.78125 53.171875-59.257813 0-20.734374-10.171875-39.027343-27.171875-49.695312v-42.039062c15.722656-2.605469 27.195312-16.285157 27.023438-32.21875zm-253.023438 9.304687c0-1.367187 1.460938-2.085937 2.828125-2.085937h96.109375c.570312-.074219 1.144531.125 1.546875.53125.40625.410156.597656.984374.515625 1.554687v18.914063h-101zm188 173.914063c-.152344 13.304687-10.984375 24.007812-24.289062 24h-225.65625c-13.257813-.011719-24.011719-10.742188-24.054688-24v-118.53125c0-13.234376 10.824219-24.46875 24.054688-24.46875h225.65625c13.230468 0 24.289062 11.234374 24.289062 24.46875zm53.5625-59.265626c0 24.191407-18.5625 44.222657-41.5625 47.179688v-94.363281c23 2.957031 41.5625 22.988281 41.5625 47.183593zm-41.851562-123.953124c0-11.476563 9.300781-20.78125 20.777343-20.78125 11.476563 0 20.78125 9.304687 20.78125 20.78125 0 11.476562-9.304687 20.777343-20.78125 20.777343-11.472656-.007812-20.769531-9.308593-20.777343-20.777343zm0 0" fill="#0635c9"/><path d="m213.953125 347.085938h-5.917969c-11.105468.148437-20.03125 9.1875-20.035156 20.292968v17.097656c0 3.3125 2.71875 5.613282 6.035156 5.613282h33.917969c3.316406 0 6.046875-2.300782 6.046875-5.613282v-17.097656c-.011719-11.109375-8.941406-20.144531-20.046875-20.292968zm8.046875 31h-22v-10.707032c0-4.480468 3.554688-8.152344 8.035156-8.292968h5.917969c4.484375.136718 8.046875 3.808593 8.046875 8.292968zm0 0" fill="#0635c9"/><path d="m367.730469 347.085938h-5.921875c-11.027344 0-19.808594 9.265624-19.808594 20.292968v17.097656c-.023438 1.53125.585938 3.003907 1.6875 4.066407 1.101562 1.066406 2.59375 1.621093 4.121094 1.542969h33.921875c3.316406 0 6.269531-2.300782 6.269531-5.613282v-17.101562c-.117188-11.144532-9.121094-20.15625-20.269531-20.285156zm8.269531 31h-22v-10.707032c0-4.410156 3.402344-8.292968 7.808594-8.292968h5.921875c4.527343.121093 8.160156 3.765624 8.269531 8.292968zm0 0" fill="#0635c9"/><path d="m321.800781 405.085938h-67.839843c-3.3125 0-5.960938 3.152343-5.960938 6.464843v5.921875c.015625 8.96875 3.613281 17.5625 9.988281 23.871094 6.375 6.3125 15.003907 9.816406 23.972657 9.742188h11.839843c18.75 0 34.199219-14.867188 34.199219-33.613282v-5.921875c-.054688-3.445312-2.757812-6.265625-6.199219-6.464843zm-28 34h-11.839843c-12.101563 0-21.957032-9-22-22h55.839843c-.039062 13-9.894531 22-22 22zm0 0" fill="#0635c9"/><g fill="#1ae5be"><path d="m353 185.878906v-151.691406c0-18.800781-15.632812-34.1015625-34.4375-34.1015625h-284.839844c-9 .0234375-17.621094 3.6367185-23.949218 10.0390625-6.332032 6.398438-9.8476568 15.058594-9.773438 24.0625v151.691406c-.078125 9.011719 3.433594 17.6875 9.761719 24.105469s14.949219 10.050781 23.960937 10.101563h11.4375c1.757813-.070313 3.316406 1.117187 3.71875 2.828124 6.320313 35.761719 29.761719 46.53125 34.800782 48.460938.894531.476562 1.890624.726562 2.90625.722656.296874 0 .589843-.027344.882812-.070312 2.613281-.414063 4.703125-2.394532 5.253906-4.980469.621094-2.75 1.015625-5.546875 1.179688-8.359375 1.828125-19.558594 5.679687-38.601562 30.398437-38.601562h194.261719c18.910156-.042969 34.269531-15.296876 34.4375-34.207032zm-270.992188 71.140625c-6.902343-4.617187-17.5625-14.949219-21.3125-36.167969-1.382812-7.46875-7.941406-12.855468-15.535156-12.765624h-11.4375c-5.828125-.046876-11.402344-2.417969-15.480468-6.585938-4.078126-4.167969-6.324219-9.792969-6.242188-15.621094v-151.691406c-.078125-5.820312 2.175781-11.429688 6.253906-15.582031 4.082032-4.148438 9.648438-6.496094 15.46875-6.519531h284.839844c12.1875 0 22.4375 9.914062 22.4375 22.101562v151.691406c-.160156 12.285156-10.148438 22.171875-22.4375 22.207032h-194.261719c-37.253906 0-40.875 33.820312-42.292969 48.933593zm0 0"/><path d="m311.535156 125.085938h-72.011718c-3.316407 0-6 2.6875-6 6s2.683593 6 6 6h72.011718c3.3125 0 6-2.6875 6-6s-2.6875-6-6-6zm0 0"/><path d="m92.007812 125.085938c-3.3125 0-6 2.6875-6 6s2.6875 6 6 6h113.5c3.3125 0 6-2.6875 6-6s-2.6875-6-6-6zm0 0"/><path d="m40.75 137.085938h24.773438c3.3125 0 6-2.6875 6-6s-2.6875-6-6-6h-24.773438c-3.3125 0-6 2.6875-6 6s2.6875 6 6 6zm0 0"/><path d="m311.535156 90.085938h-18.800781c-3.3125 0-6 2.6875-6 6s2.6875 6 6 6h18.800781c3.3125 0 6-2.6875 6-6s-2.6875-6-6-6zm0 0"/><path d="m266.402344 102.085938c3.3125 0 6-2.6875 6-6s-2.6875-6-6-6h-31.476563c-3.3125 0-6 2.6875-6 6s2.6875 6 6 6zm0 0"/><path d="m40.75 102.085938h167.632812c3.3125 0 6-2.6875 6-6s-2.6875-6-6-6h-167.632812c-3.3125 0-6 2.6875-6 6s2.6875 6 6 6zm0 0"/><path d="m311.535156 48.085938h-15.199218c-3.3125 0-6 2.6875-6 6s2.6875 6 6 6h15.199218c3.3125 0 6-2.6875 6-6s-2.6875-6-6-6zm0 0"/><path d="m204.535156 60.085938h65.109375c3.316407 0 6-2.6875 6-6s-2.683593-6-6-6h-65.109375c-3.316406 0-6 2.6875-6 6s2.683594 6 6 6zm0 0"/><path d="m40.75 60.085938h137.242188c3.3125 0 6-2.6875 6-6s-2.6875-6-6-6h-137.242188c-3.3125 0-6 2.6875-6 6s2.6875 6 6 6zm0 0"/><path d="m241.324219 160.085938h-2.910157c-3.3125 0-6 2.6875-6 6s2.6875 6 6 6h2.910157c3.3125 0 6-2.6875 6-6s-2.6875-6-6-6zm0 0"/><path d="m214.042969 160.085938h-52.027344c-3.3125 0-6 2.6875-6 6s2.6875 6 6 6h52.027344c3.316406 0 6-2.6875 6-6s-2.683594-6-6-6zm0 0"/><path d="m128.828125 160.085938h-88.078125c-3.3125 0-6 2.6875-6 6s2.6875 6 6 6h88.078125c3.3125 0 6-2.6875 6-6s-2.6875-6-6-6zm0 0"/></g></svg>