<svg height="490pt" viewBox="0 -8 490.65092 490" width="490pt" xmlns="http://www.w3.org/2000/svg"><path d="m484.648438 255.105469c0 14.789062-11.988282 26.78125-26.777344 26.78125-14.792969 0-26.78125-11.992188-26.78125-26.78125 0-14.789063 11.988281-26.78125 26.78125-26.78125 14.789062 0 26.777344 11.992187 26.777344 26.78125zm0 0" fill="#6fe3ff"/><path d="m431.089844 325.496094c29.582031 0 53.558594 23.980468 53.558594 53.558594 0 29.582031-23.976563 53.5625-53.558594 53.5625zm0 0" fill="#e48e66"/><path d="m231.730469 289.796875h169.359375c16.570312 0 30 13.429687 30 30v118.527344c0 16.570312-13.429688 30-30 30h-225.660156c-16.566407 0-30-13.429688-30-30v-118.527344c0-16.570313 13.433593-30 30-30zm150.378906 94.917969v-17.097656c0-7.734376-6.265625-14-14-14h-5.917969c-7.734375 0-14 6.265624-14 14v17.097656zm-59.929687 33v-5.929688h-67.839844v5.929688c.003906 15.464844 12.539062 27.996094 28 28h11.839844c15.464843 0 28-12.535156 28-28zm-93.851563-33v-17.097656c0-7.734376-6.265625-14-14-14h-5.917969c-7.730468 0-14 6.265624-14 14v17.097656zm0 0" fill="#f8ec7d"/><path d="m382.109375 367.617188v17.097656h-33.917969v-17.097656c0-7.734376 6.265625-14 14-14h5.917969c7.734375 0 14 6.265624 14 14zm0 0" fill="#e48e66"/><path d="m347.039062 34.425781v151.691407c.003907 15.519531-12.578124 28.105468-28.097656 28.109374h-194.261718c-19.5 0-28.199219 10.570313-32.339844 22.277344-4.140625 11.710938-3.730469 24.582032-5.011719 29.160156-.167969.613282-.359375.832032-.539063.53125 0 0-25.238281-7.980468-31.617187-44.140624-.902344-4.589844-4.953125-7.882813-9.632813-7.828126h-11.4375c-15.523437-.003906-28.101562-12.589843-28.101562-28.109374v-151.691407c0-15.519531 12.582031-28.101562 28.101562-28.101562h284.839844c15.519532 0 28.097656 12.582031 28.097656 28.101562zm0 0" fill="#6fe3ff"/><path d="m344.800781 264.414062v25.382813h-113.070312v-25.382813c-.003907-2.25.890625-4.410156 2.480469-6 1.589843-1.59375 3.75-2.488281 6-2.488281h96.109374c4.6875.003907 8.480469 3.804688 8.480469 8.488281zm0 0" fill="#e48e66"/><path d="m322.179688 411.785156v5.929688c0 15.464844-12.535157 28-28 28h-11.839844c-15.460938-.003906-27.996094-12.535156-28-28v-5.929688zm0 0" fill="#e48e66"/><path d="m228.328125 367.617188v17.097656h-33.917969v-17.097656c0-7.734376 6.269532-14 14-14h5.917969c7.734375 0 14 6.265624 14 14zm0 0" fill="#e48e66"/><g fill="#63316d"><path d="m84.023438 271.574219c.902343.492187 1.910156.753906 2.9375.753906.269531 0 .542968-.019531.8125-.054687 2.652343-.378907 4.785156-2.371094 5.335937-4.992188.617187-2.761719 1.011719-5.570312 1.175781-8.394531.527344-5.664063 1.25-13.417969 3.710938-20.382813 4.410156-12.46875 12.890625-18.277344 26.683594-18.277344h194.261718c18.824219-.023437 34.082032-15.285156 34.097656-34.109374v-151.691407c-.019531-18.824219-15.273437-34.078125-34.097656-34.101562h-284.839844c-18.824218.023437-34.0820308 15.277343-34.101562 34.101562v151.691407c.0195312 18.824218 15.273438 34.085937 34.101562 34.109374h11.4375c1.765626-.054687 3.324219 1.148438 3.722657 2.871094 6.296875 35.679688 29.648437 46.511719 34.761719 48.476563zm-38.484376-63.347657h-11.4375c-12.203124-.019531-22.089843-9.910156-22.101562-22.109374v-151.691407c.015625-12.199219 9.898438-22.085937 22.101562-22.101562h284.839844c12.199219.015625 22.085938 9.902343 22.097656 22.101562v151.691407c-.011718 12.199218-9.898437 22.089843-22.097656 22.109374h-194.261718c-18.777344 0-31.917969 9.085938-38 26.28125-2.867188 8.125-3.710938 16.480469-4.292969 22.714844-6.917969-4.613281-17.558594-14.953125-21.308594-36.210937-1.382813-7.46875-7.941406-12.867188-15.539063-12.785157zm0 0"/><path d="m311.910156 125.554688h-72.011718c-3.3125 0-6 2.6875-6 6 0 3.316406 2.6875 6 6 6h72.011718c3.3125 0 6-2.683594 6-6 0-3.3125-2.6875-6-6-6zm0 0"/><path d="m211.890625 131.554688c0-3.3125-2.6875-6-6-6h-113.5c-3.3125 0-6 2.6875-6 6 0 3.316406 2.6875 6 6 6h113.5c3.3125 0 6-2.683594 6-6zm0 0"/><path d="m41.128906 137.554688h24.769532c3.316406 0 6-2.683594 6-6 0-3.3125-2.683594-6-6-6h-24.769532c-3.3125 0-6 2.6875-6 6 0 3.316406 2.6875 6 6 6zm0 0"/><path d="m293.109375 102.425781h18.800781c3.3125 0 6-2.6875 6-6s-2.6875-6-6-6h-18.800781c-3.3125 0-6 2.6875-6 6s2.6875 6 6 6zm0 0"/><path d="m266.78125 102.425781c3.3125 0 6-2.6875 6-6s-2.6875-6-6-6h-31.480469c-3.316406 0-6 2.6875-6 6s2.683594 6 6 6zm0 0"/><path d="m41.128906 102.425781h167.632813c3.3125 0 6-2.6875 6-6s-2.6875-6-6-6h-167.632813c-3.3125 0-6 2.6875-6 6s2.6875 6 6 6zm0 0"/><path d="m296.710938 60.277344h15.199218c3.3125 0 6-2.6875 6-6 0-3.316406-2.6875-6-6-6h-15.199218c-3.316407 0-6 2.683594-6 6 0 3.3125 2.683593 6 6 6zm0 0"/><path d="m204.910156 60.277344h65.121094c3.3125 0 6-2.6875 6-6 0-3.316406-2.6875-6-6-6h-65.121094c-3.3125 0-6 2.683594-6 6 0 3.3125 2.6875 6 6 6zm0 0"/><path d="m41.128906 60.277344h137.242188c3.3125 0 6-2.6875 6-6 0-3.316406-2.6875-6-6-6h-137.242188c-3.3125 0-6 2.683594-6 6 0 3.3125 2.6875 6 6 6zm0 0"/><path d="m241.699219 160.683594h-2.910157c-3.3125 0-6 2.6875-6 6 0 3.316406 2.6875 6 6 6h2.910157c3.316406 0 6-2.683594 6-6 0-3.3125-2.683594-6-6-6zm0 0"/><path d="m214.421875 160.683594h-52.03125c-3.3125 0-6 2.6875-6 6 0 3.316406 2.6875 6 6 6h52.03125c3.3125 0 6-2.683594 6-6 0-3.3125-2.6875-6-6-6zm0 0"/><path d="m135.210938 166.683594c0-3.3125-2.6875-6-6-6h-88.082032c-3.3125 0-6 2.6875-6 6 0 3.316406 2.6875 6 6 6h88.082032c3.3125 0 6-2.683594 6-6zm0 0"/><path d="m490.648438 255.105469c.003906-17.324219-13.472657-31.660157-30.765626-32.722657-17.289062-1.066406-32.425781 11.507813-34.546874 28.703126-2.121094 17.191406 9.503906 33.070312 26.535156 36.238281v35.917969c-4.757813-1.777344-9.726563-2.9375-14.78125-3.445313-.023438-19.871094-16.125-35.976563-36-36h-50.289063v-19.382813c-.007812-7.996093-6.484375-14.476562-14.480469-14.488281h-42.421874v-18.871093c0-3.3125-2.683594-6-6-6-3.3125 0-6 2.6875-6 6v18.871093h-41.6875c-7.996094.011719-14.476563 6.492188-14.480469 14.488281v19.382813h-50.300781c-19.871094.019531-35.976563 16.125-36 36v118.527344c.023437 19.875 16.128906 35.980469 36 36h225.660156c19.875-.019531 35.976562-16.125 36-36v-.011719c25.066406-2.527344 45.828125-20.558594 51.839844-45.023438 6.015624-24.464843-4.023438-50.066406-25.058594-63.925781v-42.039062c15.507812-2.90625 26.757812-16.4375 26.777344-32.21875zm-252.917969 9.308593c0-1.371093 1.109375-2.484374 2.480469-2.488281h96.109374c1.371094.003907 2.480469 1.117188 2.480469 2.488281v19.382813h-101.070312zm187.359375 173.910157c-.015625 13.25-10.75 23.988281-24 24h-225.660156c-13.25-.011719-23.984376-10.75-24-24v-118.527344c.015624-13.25 10.75-23.988281 24-24h225.660156c13.25.011719 23.984375 10.75 24 24zm53.558594-59.269531c-.027344 23.9375-17.816407 44.132812-41.558594 47.183593v-94.367187c23.742187 3.050781 41.53125 23.246094 41.558594 47.183594zm-41.558594-123.949219c0-11.476563 9.304687-20.78125 20.78125-20.78125 11.476562 0 20.777344 9.304687 20.777344 20.78125 0 11.476562-9.300782 20.78125-20.777344 20.78125-11.472656-.011719-20.769532-9.308594-20.78125-20.78125zm0 0"/><path d="m214.328125 347.617188h-5.917969c-11.039062.011718-19.988281 8.957031-20 20v17.097656c0 3.3125 2.6875 6 6 6h33.917969c3.316406 0 6-2.6875 6-6v-17.097656c-.011719-11.042969-8.957031-19.988282-20-20zm8 31.097656h-21.917969v-11.097656c.003906-4.417969 3.582032-7.996094 8-8h5.917969c4.417969.003906 7.996094 3.582031 8 8zm0 0"/><path d="m368.109375 347.617188h-5.917969c-11.042968.011718-19.988281 8.957031-20 20v17.097656c0 3.3125 2.683594 6 6 6h33.917969c3.3125 0 6-2.6875 6-6v-17.097656c-.011719-11.042969-8.957031-19.988282-20-20zm8 31.097656h-21.917969v-11.097656c.003906-4.417969 3.582032-7.996094 8-8h5.917969c4.417969.003906 7.996094 3.582031 8 8zm0 0"/><path d="m322.179688 405.785156h-67.839844c-3.3125 0-6 2.6875-6 6v5.929688c.019531 18.769531 15.230468 33.980468 34 34h11.839844c18.769531-.019532 33.980468-15.230469 34-34v-5.929688c0-3.3125-2.6875-6-6-6zm-28 33.929688h-11.839844c-12.117188-.011719-21.945313-9.8125-22-21.929688h55.839844c-.050782 12.117188-9.882813 21.917969-22 21.929688zm0 0"/></g></svg>